<svg width="900" height="1200" viewBox="0 0 900 1200" xmlns="http://www.w3.org/2000/svg">
<defs><linearGradient id="bg" x1="0" x2="1" y1="0" y2="1"><stop stop-color="#fb7185"/><stop offset=".42" stop-color="#111"/><stop offset="1" stop-color="#8b5cf6"/></linearGradient><filter id="blur"><feGaussianBlur stdDeviation="35"/></filter><radialGradient id="r" cx="50%" cy="24%" r="50%"><stop stop-color="#fff" stop-opacity=".38"/><stop offset="1" stop-color="#fff" stop-opacity="0"/></radialGradient></defs>
<rect width="900" height="1200" rx="58" fill="url(#bg)"/>
<circle cx="170" cy="180" r="170" fill="#fb7185" opacity=".35" filter="url(#blur)"/><circle cx="760" cy="890" r="220" fill="#8b5cf6" opacity=".4" filter="url(#blur)"/>
<path d="M0 780 C160 600 300 690 460 510 C620 340 760 410 900 250 V1200 H0Z" fill="#050505" opacity=".46"/>
<g opacity=".9"><rect x="60" y="690" width="52" height="260" rx="22" fill="#070707" opacity=".78"/><rect x="150" y="648" width="52" height="260" rx="22" fill="#070707" opacity=".78"/><rect x="240" y="606" width="52" height="260" rx="22" fill="#070707" opacity=".78"/><rect x="330" y="564" width="52" height="260" rx="22" fill="#070707" opacity=".78"/><rect x="420" y="522" width="52" height="260" rx="22" fill="#070707" opacity=".78"/><rect x="510" y="690" width="52" height="260" rx="22" fill="#070707" opacity=".78"/><rect x="600" y="648" width="52" height="260" rx="22" fill="#070707" opacity=".78"/><rect x="690" y="606" width="52" height="260" rx="22" fill="#070707" opacity=".78"/><rect x="780" y="564" width="52" height="260" rx="22" fill="#070707" opacity=".78"/></g>
<circle cx="450" cy="430" r="120" fill="url(#r)"/>
<path d="M390 575c-80 44-110 123-110 241h340c0-123-33-203-118-243l-55 54-57-52Z" fill="#111" opacity=".82"/>
<circle cx="450" cy="435" r="86" fill="#111" opacity=".85"/><path d="M363 438c35-80 144-85 184 0-39-26-125-26-184 0Z" fill="#fb7185" opacity=".8"/>
<text x="60" y="1010" font-family="Inter,Arial" font-size="64" font-weight="900" fill="#fff">Pixel Quest</text><text x="62" y="1070" font-family="Inter,Arial" font-size="31" fill="#ddd">Game world journey</text><text x="62" y="1130" font-family="Inter,Arial" font-size="24" fill="#fb7185">BoundUp Originals</text>
</svg>