<svg xmlns="http://www.w3.org/2000/svg" viewBox="0 0 320 320">
<defs><linearGradient id="g" x1="0" x2="1" y1="0" y2="1"><stop offset="0" stop-color="#ffb347"/><stop offset=".45" stop-color="#ff6b00"/><stop offset="1" stop-color="#7c2cff"/></linearGradient><filter id="glow" x="-50%" y="-50%" width="200%" height="200%"><feGaussianBlur stdDeviation="10" result="b"/><feMerge><feMergeNode in="b"/><feMergeNode in="SourceGraphic"/></feMerge></filter></defs>
<rect width="320" height="320" rx="74" fill="#050507"/><path filter="url(#glow)" fill="url(#g)" d="M77 67h135c38 0 61 21 53 55-5 23-22 37-48 42 30 7 47 27 39 59-9 36-42 53-87 53H54L77 67Zm55 51-10 42h62c20 0 33-7 36-21 3-13-7-21-27-21h-61Zm-21 85-11 44h71c23 0 38-8 42-23 4-14-8-21-32-21h-70Z"/><path fill="#ffedda" opacity=".85" d="M215 39 278 29l-27 54 41 31-68 9-24 52-25-42-61-3 53-38 4-59z"/></svg>