<svg width="360" height="360" viewBox="0 0 360 360" xmlns="http://www.w3.org/2000/svg"><rect width="360" height="360" rx="28" fill="#0c0c10"/><rect x="26" y="26" width="96" height="96" rx="12" fill="#fff"/><rect x="238" y="26" width="96" height="96" rx="12" fill="#fff"/><rect x="26" y="238" width="96" height="96" rx="12" fill="#fff"/><rect x="48" y="48" width="52" height="52" rx="7" fill="#090909"/><rect x="260" y="48" width="52" height="52" rx="7" fill="#090909"/><rect x="48" y="260" width="52" height="52" rx="7" fill="#090909"/><g fill="#ff6b00"><rect x="150" y="34" width="24" height="24"/><rect x="184" y="34" width="24" height="24"/><rect x="150" y="80" width="58" height="24"/><rect x="145" y="145" width="24" height="24"/><rect x="191" y="145" width="24" height="24"/><rect x="237" y="145" width="58" height="24"/><rect x="145" y="191" width="70" height="24"/><rect x="237" y="191" width="24" height="24"/><rect x="283" y="191" width="24" height="24"/><rect x="145" y="237" width="24" height="70"/><rect x="191" y="237" width="24" height="24"/><rect x="237" y="237" width="70" height="24"/><rect x="237" y="283" width="24" height="24"/><rect x="283" y="283" width="24" height="24"/></g></svg>